<svg width="627" height="464" viewBox="0 0 627 464" fill="none" xmlns="http://www.w3.org/2000/svg">
<g clip-path="url(#clip0_51_62)">
<path d="M98.406 42.6453C227.092 -63.5595 286.214 59.0387 372.362 83.4879C458.509 107.937 533.3 74.4039 565.806 193.636C598.312 312.868 438.994 451.902 266.643 424.34C94.2917 396.779 -20.2476 140.597 98.406 42.6453Z" fill="#EBF3FF"/>
<path d="M369.445 30.5193C360.427 15.492 327.64 16.4356 323.441 35.3922C319.242 54.3488 297.289 56.5177 299.6 68.9817C301.911 81.4458 282.692 71.6858 280.635 90.5016C278.577 109.317 319.228 144.977 361.569 122.894C403.91 100.811 371.939 82.4035 375.462 71.0943C378.984 59.7851 383.634 51.9264 378.66 47.1521C373.686 42.3777 380.224 32.5473 369.445 30.5193Z" fill="#4A0945"/>
<path d="M374.954 410.215V410.326C374.949 410.289 374.949 410.252 374.954 410.215Z" fill="#2B022B"/>
<path d="M417.648 424.383L407.573 436.354L372.066 430.72C373.08 422.27 374.729 411.581 374.884 410.398V410.285H401.81C401.81 410.285 408.982 416.468 417.648 424.383Z" fill="#FF94A9"/>
<path d="M448.618 456.662C447.139 460.733 409.743 451.381 398.499 449.085C387.255 446.79 371.46 445.297 371.263 440.016C371.363 436.882 371.631 433.755 372.066 430.65L407.573 436.283L417.648 424.312C431.569 437.1 449.548 454.099 448.618 456.662Z" fill="#2B022B"/>
<path d="M356.539 381.597L340.955 383.118L319.58 354.218C326.216 348.894 334.868 342.388 335.826 341.683H335.939L355.186 360.499C355.186 360.499 355.961 369.879 356.539 381.597Z" fill="#FF94A9"/>
<path d="M356.088 426.326C352.185 428.185 331.993 395.342 325.568 385.878C319.143 376.414 308.857 364.217 312.45 360.344C314.72 358.181 317.099 356.136 319.58 354.218L340.955 383.118L356.539 381.597C357.595 400.426 358.497 425.185 356.088 426.326Z" fill="#2B022B"/>
<path d="M372.291 170.638C372.291 170.638 423.594 247.619 427.567 261.336C431.541 275.054 357.116 367.499 357.116 367.499C357.116 367.499 328.217 348.725 329.668 344.388C331.12 340.05 381.971 263.294 381.971 263.294C381.971 263.294 330.317 195.974 334.149 184.792C337.982 173.609 354.073 162.004 354.073 162.004" fill="#2B022B"/>
<path d="M299.6 177.905C292.005 231.873 326.822 269.448 353.664 303.742C358.849 357.908 371.855 420.383 372.94 419.299C374.024 418.214 405.446 414.961 404.361 411.355C403.276 407.75 397.865 294.715 394.61 285.687C391.355 276.659 345.478 172.849 345.478 172.849L309.886 182.116" fill="#4A0945"/>
<path d="M433.767 181.947C434.796 169.384 435.613 162.23 430.822 168.68C428.054 172.278 426.028 176.39 424.862 180.778" fill="#FF94A9"/>
<path d="M321.933 185.918L323.553 163.23L324.202 154.202L324.948 143.71L325.597 134.696L326.343 124.19L326.991 115.176L327.71 105.191L330.359 82.8682L353.636 84.2766L366.796 102.585C366.796 102.585 367.388 105.909 368.29 111.19C368.727 113.726 369.234 116.725 369.783 120.007C370.333 123.288 370.882 126.654 371.46 130.274C371.925 133.091 372.39 136.104 372.869 139.09C373.405 142.512 373.926 145.977 374.419 149.371C374.856 152.399 375.264 155.371 375.645 158.202C376.335 163.427 376.899 168.201 377.237 172.06C378.998 193.143 354.439 185.369 321.933 185.918Z" fill="white"/>
<path d="M375.687 158.244L323.553 163.23L324.202 154.202L374.391 149.413C374.828 152.441 375.236 155.413 375.687 158.244Z" fill="#EAEAEA"/>
<path d="M372.869 139.132L324.962 143.71L325.611 134.696L371.46 130.316C371.925 133.175 372.39 136.147 372.869 139.132Z" fill="#EAEAEA"/>
<path d="M369.783 120.049L326.371 124.19L327.02 115.176L368.318 111.233C368.727 113.768 369.234 116.768 369.783 120.049Z" fill="#EAEAEA"/>
<path d="M429.695 163.328L411.504 175.088L387.988 139.47C392.835 131.119 400.669 125.302 406.305 121.964C415.901 138.625 429.695 163.328 429.695 163.328Z" fill="#FF94A9"/>
<path d="M406.319 121.964C400.683 125.302 392.835 131.119 388.002 139.47L382.662 131.386C383 131.936 385.071 136.189 380.901 150.582C376.378 166.159 383.972 185.792 383.423 185.482C375.851 178.169 370.581 168.805 368.262 158.54C364.64 142.146 357.116 90.9381 351.029 82.4879C378.463 86.206 394.173 103.135 397.696 107.684C398.753 109.05 402.134 114.683 406.319 121.964Z" fill="#4CA1FF"/>
<path d="M296.43 152.794C296.43 152.794 279.902 130.415 286.412 108.74C292.921 87.0651 328.978 82.4457 328.978 82.4457C336.353 102.231 339.511 123.338 338.249 144.414C336.08 179.172 323.976 219.789 320.369 218.719C316.762 217.649 287.891 208.861 284.89 196.453C286.228 188.369 299.403 162.187 296.43 152.794Z" fill="#4CA1FF"/>
<path d="M386.748 192.819L407.714 145.977C408.022 145.413 408.495 144.957 409.068 144.668C409.642 144.378 410.29 144.27 410.927 144.357L439.107 148.245C440.403 148.428 442.855 151.202 442.362 152.287L419.62 197.354C419.309 197.919 418.834 198.377 418.259 198.668C417.683 198.959 417.033 199.071 416.394 198.988L389.059 197.185C387.734 197.002 386.269 193.89 386.748 192.819Z" fill="#90A6FF"/>
<path d="M389.848 197.453L418.028 201.354C418.668 201.437 419.318 201.326 419.893 201.034C420.469 200.743 420.943 200.285 421.255 199.72L442.207 152.892C442.7 151.808 442.038 150.794 440.798 150.611L412.618 146.724C411.981 146.636 411.333 146.744 410.759 147.034C410.185 147.323 409.713 147.78 409.405 148.343L388.368 195.185C388.257 195.431 388.21 195.701 388.23 195.97C388.251 196.239 388.339 196.498 388.486 196.724C388.634 196.95 388.836 197.136 389.074 197.263C389.312 197.39 389.578 197.456 389.848 197.453Z" fill="#C7DDFF"/>
<path d="M431.4 163.3C432.067 163.387 432.746 163.27 433.346 162.966C433.947 162.663 434.442 162.185 434.767 161.596L437.191 156.174C437.31 155.917 437.362 155.635 437.342 155.353C437.322 155.071 437.232 154.799 437.078 154.561C436.925 154.323 436.714 154.129 436.465 153.994C436.217 153.86 435.938 153.791 435.655 153.793C434.989 153.706 434.313 153.822 433.714 154.126C433.115 154.43 432.623 154.908 432.302 155.498L429.864 160.92C429.745 161.176 429.693 161.459 429.713 161.741C429.732 162.023 429.823 162.295 429.976 162.532C430.13 162.77 430.341 162.965 430.589 163.099C430.838 163.233 431.117 163.302 431.4 163.3Z" fill="#4A0945"/>
<path d="M296.43 152.794C302.672 141.245 318.016 139.259 318.016 139.259L328.978 164.708L378.9 173.37C378.9 173.37 384.127 169.652 387.354 169.243C390.58 168.835 399.486 163.427 401.726 164.652C403.966 165.877 395.146 174.13 395.146 174.13C398.302 174.774 401.491 175.244 404.699 175.539C410.335 176.074 417.38 173.37 416.69 176.75C415.999 180.13 407.616 191.101 400.162 191.51C392.708 191.918 378.505 188.186 378.505 188.186L323.032 187.2C320.503 187.164 318.03 186.448 315.873 185.127C313.716 183.806 311.955 181.929 310.774 179.693L296.43 152.794Z" fill="#FF94A9"/>
<path d="M318.016 139.259L309.886 116.683" stroke="#0063BC" stroke-width="1.08" stroke-linecap="round" stroke-linejoin="round"/>
<path d="M382.648 131.386C374.194 118.401 373.024 107.839 373.024 107.839" stroke="#0063BC" stroke-width="1.08" stroke-linecap="round" stroke-linejoin="round"/>
<path d="M423.213 195.27C416.253 194.368 418.451 185.566 418.451 181.186C418.451 176.806 418.549 172.736 420.888 172.525C423.227 172.314 430.371 177.398 432.541 177.215C434.711 177.032 436.035 187.059 423.213 195.27Z" fill="#FF94A9"/>
<path d="M353.664 74.9814C353.101 77.9671 352.65 81.1923 352.255 83.8822C352.171 84.516 352.086 85.1216 352.001 85.685C351.848 86.9429 351.612 88.1896 351.297 89.4171C350.705 91.2339 346.084 94.9379 339.729 92.1353C333.374 89.3326 329.077 86.1638 328.978 82.4457C330.901 76.3136 332.458 70.073 333.642 63.7567C333.755 62.9962 333.839 62.2779 333.91 61.6019C333.98 60.9259 333.994 60.3907 333.994 59.8696L335.403 60.9963L336.305 61.6864L353.664 74.9814Z" fill="#FF94A9"/>
<path d="M353.664 74.9814C353.101 77.9671 352.65 81.1923 352.255 83.8822C352.171 84.516 352.086 85.1216 352.002 85.6849C338.559 88.8397 333.684 78.8685 333.684 63.7567C333.684 63.0525 333.684 62.3483 333.684 61.6019H333.924L336.361 61.6864L353.664 74.9814Z" fill="#D9568E"/>
<path d="M369.445 41.5609C356.539 52.9686 338.221 47.5605 338.221 47.5605C338.221 47.5605 338.01 59.1936 336.432 60.3484C334.854 61.5033 336.192 50.7856 329.387 51.8982C322.581 53.0109 326.371 65.3904 333.417 63.6722C333.417 63.6722 338.094 81.2063 353.255 80.5021C368.417 79.798 368.712 63.5173 369.445 41.5609Z" fill="#FF94A9"/>
<path d="M353.89 71.6717C353.851 72.1147 353.725 72.5456 353.52 72.94C353.314 73.3344 353.033 73.6844 352.692 73.9702C352.351 74.2559 351.957 74.4718 351.533 74.6054C351.109 74.739 350.662 74.7878 350.219 74.749C349.776 74.7102 349.345 74.5844 348.95 74.379C348.556 74.1736 348.205 73.8926 347.92 73.5519C347.634 73.2112 347.418 72.8176 347.284 72.3935C347.15 71.9694 347.102 71.5231 347.14 71.0802L353.89 71.6717Z" fill="white"/>
<path d="M330.824 60.785C333.853 60.785 332.557 54.9967 329.415 55.9121" stroke="#D9568E" stroke-width="0.54" stroke-linecap="round" stroke-linejoin="round"/>
<path d="M355.44 57.1937C355.566 57.4331 357.299 61.0667 358.568 63.7144C358.72 64.0336 358.794 64.3842 358.784 64.7375C358.775 65.0908 358.682 65.4369 358.512 65.7473C358.343 66.0578 358.103 66.3238 357.812 66.5237C357.52 66.7236 357.185 66.8516 356.834 66.8974L352.847 67.3903" stroke="#D9568E" stroke-width="0.54" stroke-linecap="round" stroke-linejoin="round"/>
<path d="M346.464 60.5738C346.408 60.8449 346.433 61.1265 346.536 61.3835C346.639 61.6404 346.815 61.8614 347.043 62.0187C347.271 62.1759 347.54 62.2626 347.817 62.2678C348.094 62.273 348.367 62.1965 348.6 62.0479C348.834 61.8992 349.019 61.6851 349.131 61.4321C349.244 61.1792 349.279 60.8987 349.233 60.6257C349.187 60.3527 349.062 60.0993 348.872 59.8972C348.683 59.6951 348.438 59.5532 348.169 59.4893C347.986 59.4459 347.795 59.4396 347.61 59.4709C347.424 59.5022 347.246 59.5704 347.087 59.6715C346.928 59.7726 346.791 59.9046 346.684 60.0595C346.577 60.2145 346.502 60.3894 346.464 60.5738Z" fill="#4A0945"/>
<path d="M362.09 59.2218C362.008 59.5953 362.077 59.9862 362.284 60.3084C362.49 60.6306 362.815 60.8578 363.189 60.94C363.563 61.0221 363.954 60.9526 364.276 60.7466C364.599 60.5405 364.826 60.215 364.908 59.8414C364.949 59.6565 364.953 59.4653 364.919 59.2789C364.886 59.0925 364.817 58.9144 364.715 58.7548C364.613 58.5953 364.48 58.4574 364.325 58.349C364.169 58.2406 363.994 58.1639 363.809 58.1232C363.624 58.0825 363.433 58.0787 363.246 58.1119C363.06 58.1451 362.882 58.2146 362.722 58.3166C362.562 58.4187 362.424 58.5511 362.316 58.7064C362.208 58.8617 362.131 59.0368 362.09 59.2218Z" fill="#4A0945"/>
<path d="M350.508 55.5318C350.508 55.5318 346.915 53.4334 344.449 56.405" stroke="#4A0945" stroke-width="0.54" stroke-miterlimit="10" stroke-linecap="round"/>
<path d="M365.993 54.884C365.993 54.884 362.4 52.7996 359.934 55.7572" stroke="#4A0945" stroke-width="0.54" stroke-miterlimit="10" stroke-linecap="round"/>
<path opacity="0.41" d="M569.146 184.735L467.175 204.312C464.963 204.734 463.511 203.438 463.934 201.396L477.461 136.795C477.784 135.692 478.398 134.697 479.238 133.914C480.079 133.131 481.115 132.589 482.237 132.344L584.222 112.782C586.42 112.359 587.872 113.655 587.449 115.683L573.922 180.299C573.6 181.4 572.986 182.394 572.145 183.174C571.304 183.955 570.268 184.495 569.146 184.735Z" fill="#6D4AFF"/>
<path opacity="0.41" d="M573.485 189.524L471.501 209.044C469.288 209.466 467.851 208.156 468.274 206.128L481.8 141.527C482.122 140.424 482.736 139.428 483.576 138.645C484.417 137.861 485.454 137.319 486.577 137.076L588.548 117.5C590.76 117.077 592.211 118.387 591.789 120.415L578.262 185.101C577.935 186.198 577.319 187.188 576.479 187.965C575.638 188.743 574.605 189.281 573.485 189.524Z" stroke="#6D4AFF" stroke-width="0.54" stroke-miterlimit="10"/>
<path d="M482.773 173.159C493.157 171.173 492.636 179.158 502.104 177.384C511.573 175.609 514.786 161.582 521.746 160.258C528.707 158.934 525.889 165.567 531.511 164.483C537.133 163.399 536.555 152.948 547.954 150.765C559.353 148.583 557.944 137.4 573.669 134.386" stroke="white" stroke-width="1.62" stroke-linecap="round" stroke-linejoin="round"/>
<path d="M488.874 143.879L497.243 142.273" stroke="white" stroke-width="1.62" stroke-linecap="round" stroke-linejoin="round"/>
<path d="M487.62 149.836L503.203 146.85" stroke="white" stroke-width="1.62" stroke-linecap="round" stroke-linejoin="round"/>
<path d="M504.753 320.065L471.36 332.839L442.404 306.545L475.798 293.771L504.753 320.065Z" fill="#A275FF"/>
<path d="M514.278 285.616L504.753 320.065L475.798 293.771L485.323 259.322L514.278 285.616Z" fill="#6D4AFF"/>
<path d="M442.404 306.545L452.211 272.364L485.323 259.322L475.798 293.771L442.404 306.545Z" fill="#CAB1FF"/>
<path d="M563.862 267.927L556.718 232.915L587.407 208.663L594.55 243.675L563.862 267.927Z" fill="#A275FF"/>
<path d="M596.311 282.955L563.862 267.927L594.55 243.675L627 258.703L596.311 282.955Z" fill="#6D4AFF"/>
<path d="M587.407 208.663L619.532 223.93L627 258.703L594.55 243.675L587.407 208.663Z" fill="#CAB1FF"/>
<path opacity="0.41" d="M475.403 253.154L400.415 267.547C397.865 268.04 396.188 266.533 396.681 264.195L410.152 199.875C410.52 198.603 411.227 197.454 412.197 196.551C413.168 195.648 414.365 195.025 415.661 194.749L490.649 180.355C493.199 179.862 494.876 181.369 494.369 183.707L480.899 248.027C480.535 249.3 479.832 250.45 478.864 251.354C477.895 252.257 476.699 252.879 475.403 253.154Z" fill="#6D4AFF"/>
<path opacity="0.41" d="M469.81 246.943L394.822 261.336C392.271 261.815 390.595 260.322 391.102 257.97L404.572 193.65C404.939 192.379 405.644 191.232 406.612 190.329C407.579 189.426 408.773 188.803 410.067 188.524L485.069 174.13C487.606 173.637 489.296 175.144 488.789 177.482L475.319 241.802C474.949 243.075 474.241 244.225 473.272 245.13C472.302 246.035 471.106 246.661 469.81 246.943Z" stroke="#6D4AFF" stroke-width="0.54" stroke-miterlimit="10"/>
<path d="M469.176 219.409C466.668 231.423 454.029 243.182 440.995 245.689C427.962 248.196 419.395 240.492 421.903 228.493C424.411 216.494 437.036 204.734 450.083 202.227L445.532 223.958L466.766 206.762C469.288 209.86 470.261 214.226 469.176 219.409Z" fill="white"/>
<path d="M466.766 206.762L445.532 223.958L450.083 202.227C457.509 200.791 463.469 202.678 466.766 206.762Z" fill="#6D4AFF"/>
<path opacity="0.41" d="M395.639 236.324L433.527 158.554L489.55 136.569" stroke="#6D4AFF" stroke-width="0.54" stroke-miterlimit="10"/>
<path opacity="0.41" d="M442.404 306.545L433.527 158.554L514.278 285.616" stroke="#6D4AFF" stroke-width="0.54" stroke-miterlimit="10"/>
<path opacity="0.41" d="M587.407 208.663L433.527 158.554L563.862 267.927" stroke="#6D4AFF" stroke-width="0.54" stroke-miterlimit="10"/>
<path d="M149.863 390.286C149.863 390.286 156.979 448.029 159.135 449.438C161.291 450.846 189.936 388.019 188.034 385.92C186.132 383.822 171.379 371.231 171.379 371.231" fill="#8136FF"/>
<path d="M136.985 406.511C136.985 406.511 118.668 461.747 119.95 463.916C121.232 466.084 174.141 421.665 173.324 418.96C172.506 416.256 164.658 398.553 164.658 398.553" fill="#A275FF"/>
<path d="M165.039 204.044C165.039 204.044 137.76 266.787 134.815 279.208C131.87 291.63 157.5 387.005 157.5 387.005L177.565 376.71L172.506 283.757L203.406 211.184" fill="#2B022B"/>
<path d="M200.109 213.635C200.109 213.635 121.57 269.279 111.454 280.476C101.337 291.672 136.985 406.511 136.985 406.511C136.985 406.511 165.743 399.286 164.658 398.553C163.573 397.821 151.019 301.855 151.019 301.855C151.019 301.855 224.894 271.814 235.377 253.041C241.661 241.751 245.131 229.113 245.494 216.198" fill="#4A0945"/>
<path d="M173.789 157.216C165.574 166.314 154.781 178.2 153.95 178.876C152.541 179.961 117.104 182.58 117.104 182.58L118.217 163.441L143.114 159.216C143.114 159.216 149.61 149.554 157.993 138.555C167.251 143.766 171.915 152.709 173.789 157.216Z" fill="#D9568E"/>
<path d="M261.754 188.087C260.147 189.486 258.49 190.791 256.78 192.002L255.188 196.129C254.568 197.749 253.779 199.734 253.032 201.861C251.989 204.678 250.876 207.706 249.89 210.551C248.53 214.023 247.483 217.61 246.762 221.268C246.48 225.592 228.444 227.085 208.958 222.212C189.471 217.339 162.221 204.466 162.46 201.354C162.671 198.889 168.096 191.65 171.238 186.299C171.858 185.27 172.38 184.313 172.774 183.482C172.917 183.189 173.044 182.888 173.155 182.58C173.648 181.313 174.564 178.355 175.606 174.609C176.156 172.623 176.776 170.384 177.382 168.187C178.213 165.145 179.072 161.99 179.847 159.075C181.58 152.596 182.961 147.259 183.046 146.935L173.803 157.188C173.662 156.836 173.507 156.469 173.324 156.075C171.182 151.315 166.56 143.4 158.008 138.541C167.772 125.767 180.115 111.219 187.837 108.008C202.194 102.05 235.659 109.641 235.659 109.641L240.816 110.176C240.816 110.176 270.067 116.5 280.184 133.105C289.441 148.371 279.169 172.947 261.754 188.087Z" fill="#A275FF"/>
<path d="M253.102 201.861C252.06 204.678 250.947 207.706 249.96 210.551C228.275 206.326 197.361 197.002 172.873 183.482C173.016 183.189 173.143 182.888 173.253 182.58C173.746 181.313 174.662 178.355 175.705 174.609C200.363 188.665 232.235 198.002 253.102 201.861Z" fill="#C1B0FF"/>
<path d="M261.754 188.087C260.147 189.486 258.49 190.791 256.78 192.002L255.188 196.129C232.967 191.721 201.645 182.045 177.41 168.187C178.241 165.145 179.101 161.99 179.876 159.075C205.745 174.384 240.421 184.355 261.754 188.087Z" fill="#C1B0FF"/>
<path d="M112.398 179.003C116.188 174.44 115.709 166.779 120.852 170.187C125.995 173.595 123.247 183.651 123.247 183.651" fill="#FF94A9"/>
<path d="M159.487 207.269L147.327 157.427C147.129 156.824 146.755 156.293 146.252 155.904C145.75 155.515 145.143 155.285 144.509 155.244L116.117 153.991C114.821 153.991 111.89 156.23 112.186 157.371L126.417 205.804C126.616 206.408 126.99 206.938 127.492 207.327C127.994 207.716 128.601 207.946 129.235 207.987L156.458 211.156C157.768 211.227 159.769 208.424 159.487 207.269Z" fill="#90A6FF"/>
<path d="M155.598 211.283L127.206 210.03C126.573 209.986 125.967 209.756 125.465 209.367C124.963 208.978 124.588 208.449 124.388 207.847L112.2 157.99C111.918 156.85 112.75 155.962 114.06 156.019L142.452 157.272C143.085 157.315 143.692 157.546 144.194 157.935C144.695 158.324 145.07 158.853 145.27 159.455L157.43 209.311C157.726 210.452 156.894 211.339 155.598 211.283Z" fill="#C7DDFF"/>
<path d="M120.894 170.187C120.223 170.151 119.577 169.914 119.042 169.508C118.507 169.101 118.106 168.542 117.893 167.905L116.484 162.117C116.202 160.92 117.061 160.004 118.428 160.061C119.1 160.095 119.746 160.33 120.282 160.738C120.817 161.145 121.217 161.704 121.429 162.342L122.838 168.117C123.134 169.314 122.261 170.243 120.894 170.187Z" fill="#4A0945"/>
<path d="M113.13 178.229C120.598 179.229 130.828 177.2 133.322 178.384C135.815 179.567 137.295 194.932 132.49 196.692C127.685 198.453 120.401 199.199 116.766 195.861C113.13 192.524 109.382 180.876 113.13 178.229Z" fill="#FF94A9"/>
<path d="M235.377 175.398L215.129 196.523L169.801 185.961C169.801 185.961 152.738 169.525 150.568 171.877C148.398 174.229 153.541 184.735 153.541 184.735C153.541 184.735 131.927 182.285 130.518 183.073C129.109 183.862 136.069 200.41 143.791 202.298C151.512 204.185 168.716 204.058 168.716 204.058L215.397 219.353C217.947 220.189 220.673 220.333 223.297 219.772C225.921 219.21 228.349 217.962 230.333 216.156L256.78 192.002C256.78 192.002 257.048 176.257 235.377 175.398Z" fill="#FF94A9"/>
<path d="M235.377 175.398L253.793 149.216" stroke="#6D38C9" stroke-width="1.08" stroke-linecap="round" stroke-linejoin="round"/>
<path d="M183.032 146.977L187.682 131.626" stroke="#6D38C9" stroke-width="1.08" stroke-linecap="round" stroke-linejoin="round"/>
<path d="M213.438 67.8128C202.378 59.9541 204.618 52.7151 208.986 52.7151C211.471 52.7413 213.936 53.1693 216.285 53.9826C216.285 53.9826 210.973 47.7577 214.876 44.5043C218.779 41.251 251.51 50.7293 256.343 56.1515C261.176 61.5737 256.977 71.6436 256.977 71.6436C256.977 71.6436 266.84 76.2912 258.386 85.2484C249.932 94.2056 244.042 100.853 239.012 99.1912" fill="#4A0945"/>
<path d="M243.324 111.754C242.422 115.359 237.547 117.528 230.727 118.894C223.907 120.26 220.202 115.641 220.019 113.74C219.994 111.858 220.079 109.977 220.272 108.106C220.484 105.388 220.737 102.149 220.836 99.1067L241.661 89.403L243.324 88.6284C241.83 94.8675 243.324 111.754 243.324 111.754Z" fill="#FF94A9"/>
<path d="M241.83 89.4453C240.52 101.346 232.192 111.683 220.23 108.12C220.441 105.402 220.695 102.163 220.794 99.1207L241.619 89.4171L241.83 89.4453Z" fill="#D9568E"/>
<path d="M212.678 60.7287C222.808 74.6434 241.858 73.404 241.858 73.404C241.858 73.404 239.548 84.7977 240.83 86.2624C242.112 87.7271 243.141 76.9812 249.538 79.4741C255.934 81.9669 249.538 93.445 243.014 90.1635C243.014 90.1635 234.644 106.261 220.004 102.29C205.365 98.318 208.634 82.2908 212.678 60.7287Z" fill="#FF94A9"/>
<path d="M246.212 87.9242C243.281 87.206 245.79 81.8964 248.65 83.4738" stroke="#D9568E" stroke-width="0.54" stroke-linecap="round" stroke-linejoin="round"/>
<path d="M223.513 79.3896C223.344 79.5867 220.85 82.7556 219.046 85.023C218.83 85.3015 218.682 85.6273 218.615 85.9737C218.548 86.3202 218.564 86.6775 218.661 87.0166C218.759 87.3558 218.935 87.667 219.176 87.9251C219.417 88.1832 219.715 88.3807 220.047 88.5017L223.823 89.91" stroke="#D9568E" stroke-width="0.54" stroke-linecap="round" stroke-linejoin="round"/>
<path d="M234.179 85.2061C234.179 85.5796 234.031 85.9378 233.767 86.202C233.502 86.4661 233.144 86.6145 232.77 86.6145C232.397 86.6145 232.038 86.4661 231.774 86.202C231.51 85.9378 231.361 85.5796 231.361 85.2061C231.361 84.8326 231.51 84.4744 231.774 84.2102C232.038 83.9461 232.397 83.7977 232.77 83.7977C233.144 83.7977 233.502 83.9461 233.767 84.2102C234.031 84.4744 234.179 84.8326 234.179 85.2061Z" fill="#4A0945"/>
<path d="M216.566 79.9247C216.566 80.2033 216.484 80.4756 216.329 80.7072C216.174 80.9388 215.954 81.1193 215.697 81.2259C215.439 81.3325 215.156 81.3604 214.883 81.306C214.609 81.2517 214.358 81.1175 214.161 80.9206C213.964 80.7236 213.83 80.4727 213.776 80.1995C213.721 79.9263 213.749 79.6431 213.856 79.3858C213.962 79.1284 214.143 78.9085 214.375 78.7537C214.606 78.599 214.879 78.5164 215.157 78.5164C215.531 78.5164 215.89 78.6648 216.154 78.9289C216.418 79.193 216.566 79.5512 216.566 79.9247Z" fill="#4A0945"/>
<path d="M231.319 79.3896C231.319 79.3896 235.278 78.122 237.04 81.5584" stroke="#4A0945" stroke-width="0.54" stroke-miterlimit="10" stroke-linecap="round"/>
<path d="M213.65 74.8546C213.65 74.8546 217.609 73.5871 219.37 77.0235" stroke="#4A0945" stroke-width="0.54" stroke-miterlimit="10" stroke-linecap="round"/>
<path d="M223.259 94.2478C224.143 94.7005 225.132 94.9079 226.124 94.8484C227.115 94.789 228.072 94.4649 228.895 93.9098" stroke="#D9568E" stroke-width="0.54" stroke-linecap="round" stroke-linejoin="round"/>
<path opacity="0.45" d="M25.0524 240.14L127.037 259.745C129.249 260.167 130.701 258.872 130.264 256.829L116.737 192.143C116.416 191.04 115.802 190.045 114.962 189.261C114.121 188.478 113.084 187.936 111.961 187.693L9.98995 168.201C7.77779 167.779 6.3265 169.088 6.76329 171.116L20.2899 235.718C20.6119 236.815 21.2244 237.806 22.0626 238.584C22.9008 239.362 23.9338 239.9 25.0524 240.14Z" fill="#4CA1FF"/>
<path opacity="0.45" d="M18.7541 244.38L120.739 263.97C122.951 264.392 124.388 263.083 123.966 261.055L110.439 196.453C110.117 195.35 109.504 194.354 108.663 193.571C107.822 192.788 106.786 192.246 105.662 192.002L3.70572 172.426C1.49356 172.004 0.0422709 173.313 0.464977 175.341L13.9916 239.943C14.3141 241.042 14.9265 242.033 15.7644 242.814C16.6024 243.594 17.635 244.135 18.7541 244.38Z" stroke="#4CA1FF" stroke-width="0.54" stroke-miterlimit="10"/>
<path d="M101.703 205.635L26.3064 189.031" stroke="white" stroke-width="1.62" stroke-linecap="round" stroke-linejoin="round"/>
<path d="M103.704 216.719L28.3072 200.115" stroke="white" stroke-width="1.62" stroke-linecap="round" stroke-linejoin="round"/>
<path d="M105.705 227.803L30.2939 211.184" stroke="white" stroke-width="1.62" stroke-linecap="round" stroke-linejoin="round"/>
<path d="M107.706 238.873L60.3202 228.437" stroke="white" stroke-width="1.62" stroke-linecap="round" stroke-linejoin="round"/>
<path opacity="0.45" d="M124.684 287.997L185.709 299.7C187.033 299.968 187.893 299.179 187.639 297.968L179.551 259.308C179.362 258.653 179.001 258.061 178.506 257.593C178.01 257.125 177.398 256.798 176.733 256.646L115.709 244.929C114.384 244.675 113.511 245.45 113.764 246.675L121.866 285.335C122.055 285.99 122.416 286.582 122.912 287.05C123.408 287.518 124.02 287.845 124.684 287.997Z" fill="#4CA1FF"/>
<path opacity="0.45" d="M119.781 292.686L180.806 304.404C182.13 304.658 182.989 303.869 182.736 302.658L174.648 263.97C174.456 263.316 174.094 262.726 173.599 262.258C173.104 261.79 172.494 261.463 171.83 261.308L110.791 249.619C109.467 249.365 108.593 250.154 108.847 251.365L116.949 290.025C117.139 290.681 117.502 291.274 118 291.743C118.499 292.211 119.114 292.537 119.781 292.686Z" stroke="#4CA1FF" stroke-width="0.54" stroke-miterlimit="10"/>
<path d="M170.548 267.35L125.431 257.407" stroke="white" stroke-width="0.97" stroke-linecap="round" stroke-linejoin="round"/>
<path d="M171.746 273.983L126.615 264.04" stroke="white" stroke-width="0.97" stroke-linecap="round" stroke-linejoin="round"/>
<path d="M172.943 280.603L127.812 270.674" stroke="white" stroke-width="0.97" stroke-linecap="round" stroke-linejoin="round"/>
<path d="M174.141 287.236L145.777 280.997" stroke="white" stroke-width="0.97" stroke-linecap="round" stroke-linejoin="round"/>
<path d="M93.094 378.667L72.4941 349.458L90.8677 314.939L111.468 344.148L93.094 378.667Z" fill="#4CA1FF"/>
<path d="M128.841 379.442L93.094 378.667L111.468 344.148L147.214 344.923L128.841 379.442Z" fill="#0063BC"/>
<path d="M90.8677 314.939L126.431 316.051L147.214 344.923L111.468 344.148L90.8677 314.939Z" fill="#80C3FF"/>
<path d="M31.1112 151.611L28.3072 135.64L42.5242 125.021L45.3282 140.991L31.1112 151.611Z" fill="#4CA1FF"/>
<path d="M45.6382 158.821L31.1112 151.611L45.3282 140.991L59.8552 148.202L45.6382 158.821Z" fill="#0063BC"/>
<path d="M42.5242 125.021L56.8962 132.344L59.8552 148.202L45.3282 140.991L42.5242 125.021Z" fill="#80C3FF"/>
<path opacity="0.45" d="M6.91829 169.342L119.654 165.131L130.264 256.815" stroke="#4CA1FF" stroke-width="0.54" stroke-miterlimit="10"/>
<path opacity="0.45" d="M115.666 244.929L119.654 165.131L179.537 259.308" stroke="#4CA1FF" stroke-width="0.54" stroke-miterlimit="10"/>
<path opacity="0.45" d="M72.4941 349.458L119.654 165.131L147.214 344.923" stroke="#4CA1FF" stroke-width="0.54" stroke-miterlimit="10"/>
<path opacity="0.45" d="M42.5242 125.021L119.654 165.131L45.6382 158.821" stroke="#4CA1FF" stroke-width="0.54" stroke-miterlimit="10"/>
</g>
<defs>
<clipPath id="clip0_51_62">
<rect width="627" height="464" fill="white"/>
</clipPath>
</defs>
</svg>
